<mxfile host="app.diagrams.net" modified="2022-03-21T12:02:06.208Z" agent="5.0 (Windows NT 10.0; Win64; x64) AppleWebKit/537.36 (KHTML, like Gecko) Chrome/99.0.4844.82 Safari/537.36" etag="WMFo23JJlNwlzGrDp7LP" version="17.1.3" type="github">
  <diagram id="C5RBs43oDa-KdzZeNtuy" name="Page-1">
    <mxGraphModel dx="423" dy="1609" grid="1" gridSize="10" guides="1" tooltips="1" connect="1" arrows="1" fold="1" page="1" pageScale="1" pageWidth="827" pageHeight="1169" math="0" shadow="0">
      <root>
        <mxCell id="WIyWlLk6GJQsqaUBKTNV-0" />
        <mxCell id="WIyWlLk6GJQsqaUBKTNV-1" parent="WIyWlLk6GJQsqaUBKTNV-0" />
        <mxCell id="ECid6od3zX2Ee6DjVGAD-9" value="" style="edgeStyle=orthogonalEdgeStyle;rounded=0;orthogonalLoop=1;jettySize=auto;html=1;fontSize=12;" edge="1" parent="WIyWlLk6GJQsqaUBKTNV-1" source="WIyWlLk6GJQsqaUBKTNV-3" target="ECid6od3zX2Ee6DjVGAD-7">
          <mxGeometry relative="1" as="geometry" />
        </mxCell>
        <mxCell id="WIyWlLk6GJQsqaUBKTNV-3" value="AX &lt;font size=&quot;1&quot;&gt;&amp;lt;&lt;/font&gt;---&amp;nbsp; 0700h&lt;br&gt;DS&amp;nbsp;&lt;font style=&quot;font-size: 10px&quot;&gt;&amp;lt;&lt;/font&gt;&lt;font style=&quot;font-size: 12px&quot;&gt;---&lt;/font&gt;&amp;nbsp; AX&lt;br&gt;DI&amp;nbsp;&lt;font size=&quot;1&quot;&gt;&amp;lt;&lt;/font&gt;---&amp;nbsp; 30h&lt;br&gt;SI&amp;nbsp;&lt;font size=&quot;1&quot;&gt;&amp;lt;&lt;/font&gt;---&amp;nbsp; OFFSET NUMBER&lt;br&gt;CX&amp;nbsp;&lt;font size=&quot;1&quot;&gt;&amp;lt;&lt;/font&gt;---&amp;nbsp; 8" style="rounded=1;whiteSpace=wrap;html=1;fontSize=12;glass=0;strokeWidth=1;shadow=0;" parent="WIyWlLk6GJQsqaUBKTNV-1" vertex="1">
          <mxGeometry x="145" y="70" width="150" height="80" as="geometry" />
        </mxCell>
        <mxCell id="WIyWlLk6GJQsqaUBKTNV-4" value="Yes" style="rounded=0;html=1;jettySize=auto;orthogonalLoop=1;fontSize=11;endArrow=block;endFill=0;endSize=8;strokeWidth=1;shadow=0;labelBackgroundColor=none;edgeStyle=orthogonalEdgeStyle;" parent="WIyWlLk6GJQsqaUBKTNV-1" source="WIyWlLk6GJQsqaUBKTNV-6" edge="1">
          <mxGeometry y="20" relative="1" as="geometry">
            <mxPoint as="offset" />
            <mxPoint x="220" y="420" as="targetPoint" />
            <Array as="points">
              <mxPoint x="110" y="390" />
              <mxPoint x="110" y="510" />
              <mxPoint x="220" y="510" />
            </Array>
          </mxGeometry>
        </mxCell>
        <mxCell id="WIyWlLk6GJQsqaUBKTNV-5" value="No" style="edgeStyle=orthogonalEdgeStyle;rounded=0;html=1;jettySize=auto;orthogonalLoop=1;fontSize=11;endArrow=block;endFill=0;endSize=8;strokeWidth=1;shadow=0;labelBackgroundColor=none;" parent="WIyWlLk6GJQsqaUBKTNV-1" source="WIyWlLk6GJQsqaUBKTNV-6" target="WIyWlLk6GJQsqaUBKTNV-7" edge="1">
          <mxGeometry y="10" relative="1" as="geometry">
            <mxPoint as="offset" />
          </mxGeometry>
        </mxCell>
        <mxCell id="WIyWlLk6GJQsqaUBKTNV-6" value="Lamp&lt;br&gt;plugged in?" style="rhombus;whiteSpace=wrap;html=1;shadow=0;fontFamily=Helvetica;fontSize=12;align=center;strokeWidth=1;spacing=6;spacingTop=-4;" parent="WIyWlLk6GJQsqaUBKTNV-1" vertex="1">
          <mxGeometry x="170" y="350" width="100" height="80" as="geometry" />
        </mxCell>
        <mxCell id="WIyWlLk6GJQsqaUBKTNV-7" value="Plug in lamp" style="rounded=1;whiteSpace=wrap;html=1;fontSize=12;glass=0;strokeWidth=1;shadow=0;" parent="WIyWlLk6GJQsqaUBKTNV-1" vertex="1">
          <mxGeometry x="320" y="220" width="120" height="40" as="geometry" />
        </mxCell>
        <mxCell id="WIyWlLk6GJQsqaUBKTNV-11" value="Repair Lamp" style="rounded=1;whiteSpace=wrap;html=1;fontSize=12;glass=0;strokeWidth=1;shadow=0;" parent="WIyWlLk6GJQsqaUBKTNV-1" vertex="1">
          <mxGeometry x="160" y="530" width="120" height="40" as="geometry" />
        </mxCell>
        <mxCell id="ECid6od3zX2Ee6DjVGAD-1" style="edgeStyle=orthogonalEdgeStyle;rounded=0;orthogonalLoop=1;jettySize=auto;html=1;entryX=0.5;entryY=0;entryDx=0;entryDy=0;" edge="1" parent="WIyWlLk6GJQsqaUBKTNV-1" source="ECid6od3zX2Ee6DjVGAD-0" target="ECid6od3zX2Ee6DjVGAD-4">
          <mxGeometry relative="1" as="geometry" />
        </mxCell>
        <mxCell id="ECid6od3zX2Ee6DjVGAD-0" value="START" style="ellipse;whiteSpace=wrap;html=1;" vertex="1" parent="WIyWlLk6GJQsqaUBKTNV-1">
          <mxGeometry x="160" y="-70" width="120" height="40" as="geometry" />
        </mxCell>
        <mxCell id="ECid6od3zX2Ee6DjVGAD-3" style="edgeStyle=orthogonalEdgeStyle;rounded=0;orthogonalLoop=1;jettySize=auto;html=1;exitX=0.5;exitY=1;exitDx=0;exitDy=0;fontSize=9;" edge="1" parent="WIyWlLk6GJQsqaUBKTNV-1" source="WIyWlLk6GJQsqaUBKTNV-3" target="WIyWlLk6GJQsqaUBKTNV-3">
          <mxGeometry relative="1" as="geometry" />
        </mxCell>
        <mxCell id="ECid6od3zX2Ee6DjVGAD-6" style="edgeStyle=orthogonalEdgeStyle;rounded=0;orthogonalLoop=1;jettySize=auto;html=1;entryX=0.5;entryY=0;entryDx=0;entryDy=0;fontSize=9;" edge="1" parent="WIyWlLk6GJQsqaUBKTNV-1" source="ECid6od3zX2Ee6DjVGAD-4" target="WIyWlLk6GJQsqaUBKTNV-3">
          <mxGeometry relative="1" as="geometry" />
        </mxCell>
        <mxCell id="ECid6od3zX2Ee6DjVGAD-4" value="NUMBER&amp;nbsp;&lt;font size=&quot;1&quot;&gt;&amp;lt;&lt;/font&gt;---&amp;nbsp; &#39;2&#39;, &#39;1&#39;, &#39;9&#39;, &#39;8&#39;, &#39;9&#39;, &#39;1&#39;, &#39;3&#39;, &#39;8&#39;&lt;br&gt;" style="rounded=1;whiteSpace=wrap;html=1;fontSize=12;glass=0;strokeWidth=1;shadow=0;" vertex="1" parent="WIyWlLk6GJQsqaUBKTNV-1">
          <mxGeometry x="110" y="-10" width="220" height="60" as="geometry" />
        </mxCell>
        <mxCell id="ECid6od3zX2Ee6DjVGAD-15" value="" style="edgeStyle=orthogonalEdgeStyle;rounded=0;orthogonalLoop=1;jettySize=auto;html=1;fontSize=12;" edge="1" parent="WIyWlLk6GJQsqaUBKTNV-1" source="ECid6od3zX2Ee6DjVGAD-7" target="ECid6od3zX2Ee6DjVGAD-11">
          <mxGeometry relative="1" as="geometry" />
        </mxCell>
        <mxCell id="ECid6od3zX2Ee6DjVGAD-7" value="AH&amp;nbsp;&lt;font size=&quot;1&quot;&gt;&amp;lt;&lt;/font&gt;---&amp;nbsp; [SI]&lt;br&gt;[DI]&amp;nbsp;&lt;font style=&quot;font-size: 10px&quot;&gt;&amp;lt;&lt;/font&gt;&lt;font style=&quot;font-size: 12px&quot;&gt;---&lt;/font&gt;&amp;nbsp; AH&lt;br&gt;" style="rounded=1;whiteSpace=wrap;html=1;fontSize=12;glass=0;strokeWidth=1;shadow=0;" vertex="1" parent="WIyWlLk6GJQsqaUBKTNV-1">
          <mxGeometry x="145" y="180" width="150" height="50" as="geometry" />
        </mxCell>
        <mxCell id="ECid6od3zX2Ee6DjVGAD-18" value="" style="edgeStyle=orthogonalEdgeStyle;rounded=0;orthogonalLoop=1;jettySize=auto;html=1;fontSize=12;" edge="1" parent="WIyWlLk6GJQsqaUBKTNV-1" source="ECid6od3zX2Ee6DjVGAD-10" target="WIyWlLk6GJQsqaUBKTNV-6">
          <mxGeometry relative="1" as="geometry" />
        </mxCell>
        <mxCell id="ECid6od3zX2Ee6DjVGAD-10" value="CX&amp;nbsp;&lt;font size=&quot;1&quot;&gt;&amp;lt;&lt;/font&gt;---&amp;nbsp; CX - 1" style="rounded=1;whiteSpace=wrap;html=1;fontSize=12;glass=0;strokeWidth=1;shadow=0;" vertex="1" parent="WIyWlLk6GJQsqaUBKTNV-1">
          <mxGeometry x="145" y="300" width="150" height="30" as="geometry" />
        </mxCell>
        <mxCell id="ECid6od3zX2Ee6DjVGAD-17" value="" style="edgeStyle=orthogonalEdgeStyle;rounded=0;orthogonalLoop=1;jettySize=auto;html=1;fontSize=12;" edge="1" parent="WIyWlLk6GJQsqaUBKTNV-1" source="ECid6od3zX2Ee6DjVGAD-11" target="ECid6od3zX2Ee6DjVGAD-10">
          <mxGeometry relative="1" as="geometry" />
        </mxCell>
        <mxCell id="ECid6od3zX2Ee6DjVGAD-11" value="SI&amp;nbsp;&lt;font size=&quot;1&quot;&gt;&amp;lt;&lt;/font&gt;---&amp;nbsp; SI + 1" style="rounded=1;whiteSpace=wrap;html=1;fontSize=12;glass=0;strokeWidth=1;shadow=0;" vertex="1" parent="WIyWlLk6GJQsqaUBKTNV-1">
          <mxGeometry x="145" y="250" width="150" height="30" as="geometry" />
        </mxCell>
      </root>
    </mxGraphModel>
  </diagram>
</mxfile>
